# xmcd
#
# Track frame offsets:
#	150
#	8224
#	28106
#	35311
#	46996
#	68414
#	87021
#	102666
#	118189
#	131614
#	150158
#	169443
#	187309
#	204774
#	207510
#
# Disc length: 3023 seconds
#
# Revision: 1
# Processed by: cddbd v1.4PL0 Copyright (c) Steve Scherf et al.
# Submitted via: audiograbber 1.80
#
DISCID=c90bcd0f
DTITLE=Creutzfeld and Jakob - Gottes Werk und Creutzfelds Beitrag
DYEAR=1900
DGENRE=
TTITLE0=Intro
TTITLE1=Anfangsstadium
TTITLE2=Rhymes, Weed, Cash, Beatz
TTITLE3=Rapskit
TTITLE4=Bunkerwelt in Witten (feat. Onanon und Dike)
TTITLE5=Zugzwang (feat. Lak Spencer und Terence Chill)
TTITLE6=Laﬂ die Puppen tanzen
TTITLE7=Flipstar
TTITLE8=Flucht in Ketten
TTITLE9=Wer meint`s ernst
TTITLE10=Software (feat. Lenny and Meron)
TTITLE11=Auge des Sturms
TTITLE12=Edla, Lak und Klartext
TTITLE13=Fehdehandschuh (feat. Kool Savas)
TTITLE14=3.Halbzeit (feat. RAG)
EXTD=
EXTT0=
EXTT1=
EXTT2=
EXTT3=
EXTT4=
EXTT5=
EXTT6=
EXTT7=
EXTT8=
EXTT9=
EXTT10=
EXTT11=
EXTT12=
EXTT13=
EXTT14=
PLAYORDER=
